<svg xmlns="http://www.w3.org/2000/svg" xmlns:xlink="http://www.w3.org/1999/xlink" width="400" zoomAndPan="magnify" viewBox="0 0 300 299.999988" height="400" preserveAspectRatio="xMidYMid meet" version="1.0"><defs><g/><clipPath id="id1"><path d="M 117 172 L 133 172 L 133 186.921875 L 117 186.921875 Z M 117 172 " clip-rule="nonzero"/></clipPath><clipPath id="id2"><path d="M 53.203125 25.671875 L 246.703125 25.671875 L 246.703125 186.921875 L 53.203125 186.921875 Z M 53.203125 25.671875 " clip-rule="nonzero"/></clipPath></defs><path fill="#f46530" d="M 103.5625 84.027344 L 121.484375 84.027344 L 121.484375 101.921875 L 103.5625 101.921875 Z M 103.5625 84.027344 " fill-opacity="1" fill-rule="evenodd"/><path fill="#2a2e30" d="M 151.875 69.972656 L 166.269531 69.972656 L 166.269531 84.355469 L 151.875 84.355469 Z M 151.875 69.972656 " fill-opacity="1" fill-rule="evenodd"/><path fill="#f46530" d="M 124.042969 104.949219 L 138.4375 104.949219 L 138.4375 119.324219 L 124.042969 119.324219 Z M 124.042969 104.949219 " fill-opacity="1" fill-rule="evenodd"/><path fill="#2a2e30" d="M 105.96875 120.605469 L 113.164062 120.605469 L 113.164062 127.792969 L 105.96875 127.792969 Z M 105.96875 120.605469 " fill-opacity="1" fill-rule="evenodd"/><path fill="#2a2e30" d="M 100.28125 64.785156 L 107.488281 64.785156 L 107.488281 71.972656 L 100.28125 71.972656 Z M 100.28125 64.785156 " fill-opacity="1" fill-rule="evenodd"/><path fill="#2a2e30" d="M 135.476562 84.910156 L 142.671875 84.910156 L 142.671875 92.097656 L 135.476562 92.097656 Z M 135.476562 84.910156 " fill-opacity="1" fill-rule="evenodd"/><path fill="#2a2e30" d="M 173.867188 63.902344 L 181.066406 63.902344 L 181.066406 71.089844 L 173.867188 71.089844 Z M 173.867188 63.902344 " fill-opacity="1" fill-rule="evenodd"/><path fill="#2a2e30" d="M 167.9375 50.484375 L 178.042969 50.484375 L 178.042969 60.585938 L 167.9375 60.585938 Z M 167.9375 50.484375 " fill-opacity="1" fill-rule="evenodd"/><path fill="#2a2e30" d="M 131.394531 35.476562 L 141.511719 35.476562 L 141.511719 45.566406 L 131.394531 45.566406 Z M 131.394531 35.476562 " fill-opacity="1" fill-rule="evenodd"/><path fill="#2a2e30" d="M 155.90625 46.613281 L 163.105469 46.613281 L 163.105469 53.800781 L 155.90625 53.800781 Z M 155.90625 46.613281 " fill-opacity="1" fill-rule="evenodd"/><path fill="#2a2e30" d="M 192.425781 68.617188 L 199.625 68.617188 L 199.625 75.804688 L 192.425781 75.804688 Z M 192.425781 68.617188 " fill-opacity="1" fill-rule="evenodd"/><path fill="#f46530" d="M 151.785156 91.234375 L 170.1875 91.234375 L 170.1875 109.609375 L 151.785156 109.609375 Z M 151.785156 91.234375 " fill-opacity="1" fill-rule="evenodd"/><path fill="#f46530" d="M 113.308594 138.265625 L 134.425781 138.265625 L 134.425781 159.355469 L 113.308594 159.355469 Z M 113.308594 138.265625 " fill-opacity="1" fill-rule="evenodd"/><path fill="#2a2e30" d="M 139.785156 124.632812 L 154.179688 124.632812 L 154.179688 139.015625 L 139.785156 139.015625 Z M 139.785156 124.632812 " fill-opacity="1" fill-rule="evenodd"/><path fill="#f46530" d="M 162.464844 143.367188 L 176.859375 143.367188 L 176.859375 157.742188 L 162.464844 157.742188 Z M 162.464844 143.367188 " fill-opacity="1" fill-rule="evenodd"/><g clip-path="url(#id1)"><path fill="#2a2e30" d="M 117.976562 172.546875 L 132.371094 172.546875 L 132.371094 186.921875 L 117.976562 186.921875 Z M 117.976562 172.546875 " fill-opacity="1" fill-rule="evenodd"/></g><path fill="#2a2e30" d="M 173.375 85 L 187.769531 85 L 187.769531 99.375 L 173.375 99.375 Z M 173.375 85 " fill-opacity="1" fill-rule="evenodd"/><path fill="#2a2e30" d="M 123.753906 123.871094 L 130.953125 123.871094 L 130.953125 131.058594 L 123.753906 131.058594 Z M 123.753906 123.871094 " fill-opacity="1" fill-rule="evenodd"/><path fill="#2a2e30" d="M 148.144531 113.339844 L 155.339844 113.339844 L 155.339844 120.523438 L 148.144531 120.523438 Z M 148.144531 113.339844 " fill-opacity="1" fill-rule="evenodd"/><path fill="#2a2e30" d="M 141.945312 148.914062 L 154.835938 148.914062 L 154.835938 161.777344 L 141.945312 161.777344 Z M 141.945312 148.914062 " fill-opacity="1" fill-rule="evenodd"/><path fill="#2a2e30" d="M 137.800781 174.703125 L 146.335938 174.703125 L 146.335938 183.214844 L 137.800781 183.214844 Z M 137.800781 174.703125 " fill-opacity="1" fill-rule="evenodd"/><path fill="#2a2e30" d="M 158.960938 120.164062 L 171.84375 120.164062 L 171.84375 133.03125 L 158.960938 133.03125 Z M 158.960938 120.164062 " fill-opacity="1" fill-rule="evenodd"/><path fill="#2a2e30" d="M 175.09375 107.96875 L 187.984375 107.96875 L 187.984375 120.832031 L 175.09375 120.832031 Z M 175.09375 107.96875 " fill-opacity="1" fill-rule="evenodd"/><path fill="#f46530" d="M 121.164062 54.007812 L 142.273438 54.007812 L 142.273438 75.085938 L 121.164062 75.085938 Z M 121.164062 54.007812 " fill-opacity="1" fill-rule="evenodd"/><g clip-path="url(#id2)"><path fill="#2a2e30" d="M 53.507812 99.40625 C 57.808594 99.292969 61.335938 98.144531 64.058594 95.914062 C 66.753906 93.707031 68.5625 90.679688 69.476562 86.839844 C 70.371094 82.980469 70.824219 76.355469 70.886719 67.023438 C 70.9375 57.691406 71.113281 51.53125 71.398438 48.585938 C 71.914062 43.894531 72.828125 40.105469 74.207031 37.25 C 75.585938 34.417969 77.28125 32.128906 79.285156 30.402344 C 81.320312 28.710938 83.902344 27.394531 87.027344 26.511719 C 89.148438 25.96875 92.621094 25.679688 97.433594 25.679688 L 102.132812 25.679688 L 102.132812 38.851562 L 99.519531 38.851562 C 93.703125 38.851562 89.855469 39.878906 87.933594 42.003906 C 86.042969 44.097656 85.09375 48.761719 85.09375 56.039062 C 85.09375 70.699219 84.777344 79.949219 84.148438 83.820312 C 83.152344 89.804688 81.425781 94.417969 78.988281 97.652344 C 76.550781 100.914062 72.738281 103.78125 67.511719 106.296875 C 73.683594 108.871094 78.15625 112.792969 80.929688 118.089844 C 83.6875 123.359375 85.085938 132.035156 85.085938 144.066406 C 85.085938 154.949219 85.167969 161.449219 85.402344 163.511719 C 85.867188 167.320312 86.976562 169.988281 88.816406 171.5 C 90.628906 172.988281 94.207031 173.757812 99.511719 173.757812 L 102.121094 173.757812 L 102.121094 186.929688 L 97.421875 186.929688 C 91.941406 186.929688 87.964844 186.480469 85.496094 185.585938 C 81.90625 184.300781 78.957031 182.207031 76.601562 179.34375 C 74.25 176.449219 72.707031 172.8125 72.015625 168.378906 C 71.328125 163.964844 70.925781 156.726562 70.867188 146.644531 C 70.804688 136.59375 70.351562 129.632812 69.457031 125.769531 C 68.542969 121.902344 66.730469 118.871094 64.039062 116.632812 C 61.3125 114.375 57.785156 113.195312 53.488281 113.113281 L 53.488281 99.425781 Z M 246.398438 99.40625 L 246.398438 113.089844 C 242.097656 113.171875 238.570312 114.355469 235.847656 116.613281 C 233.152344 118.851562 231.34375 121.878906 230.429688 125.6875 C 229.542969 129.527344 229.050781 136.109375 229.019531 145.441406 C 228.957031 154.804688 228.792969 160.933594 228.507812 163.914062 C 227.992188 168.664062 227.066406 172.445312 225.699219 175.277344 C 224.320312 178.109375 222.636719 180.371094 220.621094 182.0625 C 218.585938 183.777344 216.003906 185.070312 212.878906 185.953125 C 210.761719 186.582031 207.285156 186.898438 202.472656 186.898438 L 197.765625 186.898438 L 197.765625 173.726562 L 200.375 173.726562 C 206.195312 173.726562 210.039062 172.667969 211.960938 170.574219 C 213.855469 168.480469 214.800781 163.757812 214.800781 156.425781 C 214.800781 142.453125 215.058594 133.574219 215.570312 129.828125 C 216.464844 123.644531 218.265625 118.65625 220.9375 114.941406 C 223.632812 111.242188 227.449219 108.347656 232.382812 106.265625 C 225.925781 103.203125 221.402344 99.140625 218.757812 94.066406 C 216.117188 88.996094 214.800781 80.464844 214.800781 68.441406 C 214.800781 57.527344 214.6875 51.027344 214.398438 48.882812 C 214 45.125 212.910156 42.527344 211.066406 41.039062 C 209.257812 39.582031 205.679688 38.832031 200.375 38.832031 L 197.765625 38.832031 L 197.765625 25.660156 L 202.472656 25.660156 C 207.953125 25.660156 211.933594 26.089844 214.398438 27.003906 C 217.988281 28.238281 220.9375 30.300781 223.292969 33.183594 C 225.648438 36.101562 227.191406 39.765625 227.878906 44.179688 C 228.566406 48.625 228.96875 55.863281 229.03125 65.914062 C 229.0625 75.996094 229.542969 82.929688 230.4375 86.769531 C 231.355469 90.609375 233.164062 93.636719 235.859375 95.875 C 238.582031 98.113281 242.109375 99.28125 246.40625 99.394531 Z M 246.398438 99.40625 " fill-opacity="1" fill-rule="nonzero"/></g><g fill="#2a2e30" fill-opacity="1"><g transform="translate(61.634611, 234.547089)"><g><path d="M 19.78125 -15.1875 C 19.695312 -15.15625 19.65625 -15.101562 19.65625 -15.03125 C 19.65625 -14.96875 19.695312 -14.90625 19.78125 -14.84375 C 22.382812 -13.550781 23.6875 -11.3125 23.6875 -8.125 C 23.6875 -5.445312 22.773438 -3.421875 20.953125 -2.046875 C 19.128906 -0.679688 16.734375 0 13.765625 0 L 3.234375 0 C 2.765625 0 2.53125 -0.234375 2.53125 -0.703125 L 2.53125 -28.328125 C 2.53125 -28.796875 2.765625 -29.03125 3.234375 -29.03125 L 13.4375 -29.03125 C 19.988281 -29.03125 23.265625 -26.378906 23.265625 -21.078125 C 23.265625 -18.285156 22.101562 -16.320312 19.78125 -15.1875 Z M 8.625 -24.015625 C 8.457031 -24.015625 8.375 -23.929688 8.375 -23.765625 L 8.375 -17.375 C 8.375 -17.21875 8.457031 -17.140625 8.625 -17.140625 L 13.4375 -17.140625 C 14.738281 -17.140625 15.75 -17.441406 16.46875 -18.046875 C 17.1875 -18.648438 17.546875 -19.476562 17.546875 -20.53125 C 17.546875 -21.613281 17.1875 -22.460938 16.46875 -23.078125 C 15.75 -23.703125 14.738281 -24.015625 13.4375 -24.015625 Z M 13.765625 -5.0625 C 15.046875 -5.0625 16.046875 -5.382812 16.765625 -6.03125 C 17.484375 -6.6875 17.84375 -7.582031 17.84375 -8.71875 C 17.84375 -9.84375 17.484375 -10.726562 16.765625 -11.375 C 16.046875 -12.03125 15.035156 -12.359375 13.734375 -12.359375 L 8.625 -12.359375 C 8.457031 -12.359375 8.375 -12.273438 8.375 -12.109375 L 8.375 -5.3125 C 8.375 -5.144531 8.457031 -5.0625 8.625 -5.0625 Z M 13.765625 -5.0625 "/></g></g></g><g fill="#2a2e30" fill-opacity="1"><g transform="translate(88.972523, 234.547089)"><g><path d="M 12.78125 -21.609375 C 13.664062 -21.609375 14.394531 -21.441406 14.96875 -21.109375 C 15.300781 -20.941406 15.425781 -20.65625 15.34375 -20.25 L 14.5625 -15.890625 C 14.53125 -15.640625 14.453125 -15.484375 14.328125 -15.421875 C 14.203125 -15.367188 14.003906 -15.375 13.734375 -15.4375 C 13.285156 -15.539062 12.882812 -15.59375 12.53125 -15.59375 C 12.332031 -15.59375 12.015625 -15.566406 11.578125 -15.515625 C 10.578125 -15.429688 9.726562 -15.0625 9.03125 -14.40625 C 8.34375 -13.757812 8 -12.898438 8 -11.828125 L 8 -0.703125 C 8 -0.234375 7.765625 0 7.296875 0 L 2.859375 0 C 2.390625 0 2.15625 -0.234375 2.15625 -0.703125 L 2.15625 -20.625 C 2.15625 -21.09375 2.390625 -21.328125 2.859375 -21.328125 L 7.296875 -21.328125 C 7.765625 -21.328125 8 -21.09375 8 -20.625 L 8 -19.328125 C 8 -19.222656 8.023438 -19.15625 8.078125 -19.125 C 8.140625 -19.09375 8.210938 -19.117188 8.296875 -19.203125 C 9.398438 -20.804688 10.894531 -21.609375 12.78125 -21.609375 Z M 12.78125 -21.609375 "/></g></g></g><g fill="#2a2e30" fill-opacity="1"><g transform="translate(106.47883, 234.547089)"><g><path d="M 5.390625 -23.359375 C 4.335938 -23.359375 3.476562 -23.679688 2.8125 -24.328125 C 2.15625 -24.984375 1.828125 -25.820312 1.828125 -26.84375 C 1.828125 -27.863281 2.15625 -28.695312 2.8125 -29.34375 C 3.476562 -30 4.335938 -30.328125 5.390625 -30.328125 C 6.472656 -30.328125 7.335938 -30.007812 7.984375 -29.375 C 8.628906 -28.738281 8.953125 -27.894531 8.953125 -26.84375 C 8.953125 -25.789062 8.628906 -24.945312 7.984375 -24.3125 C 7.335938 -23.675781 6.472656 -23.359375 5.390625 -23.359375 Z M 3.1875 0 C 2.71875 0 2.484375 -0.234375 2.484375 -0.703125 L 2.484375 -20.625 C 2.484375 -21.09375 2.71875 -21.328125 3.1875 -21.328125 L 7.640625 -21.328125 C 8.109375 -21.328125 8.34375 -21.09375 8.34375 -20.625 L 8.34375 -0.703125 C 8.34375 -0.234375 8.109375 0 7.640625 0 Z M 3.1875 0 "/></g></g></g><g fill="#2a2e30" fill-opacity="1"><g transform="translate(118.882659, 234.547089)"><g><path d="M 10.703125 -21.65625 C 12.503906 -21.65625 14.109375 -21.34375 15.515625 -20.71875 C 16.921875 -20.09375 18.019531 -19.238281 18.8125 -18.15625 C 19.601562 -17.082031 20 -15.882812 20 -14.5625 L 20 -0.703125 C 20 -0.234375 19.765625 0 19.296875 0 L 14.84375 0 C 14.375 0 14.140625 -0.234375 14.140625 -0.703125 L 14.140625 -1.703125 C 14.140625 -1.804688 14.113281 -1.863281 14.0625 -1.875 C 14.007812 -1.894531 13.941406 -1.863281 13.859375 -1.78125 C 12.585938 -0.375 10.691406 0.328125 8.171875 0.328125 C 6.046875 0.328125 4.332031 -0.195312 3.03125 -1.25 C 1.726562 -2.300781 1.078125 -3.847656 1.078125 -5.890625 C 1.078125 -8.015625 1.820312 -9.664062 3.3125 -10.84375 C 4.8125 -12.019531 6.941406 -12.609375 9.703125 -12.609375 L 13.890625 -12.609375 C 14.054688 -12.609375 14.140625 -12.691406 14.140625 -12.859375 L 14.140625 -13.734375 C 14.140625 -14.640625 13.851562 -15.347656 13.28125 -15.859375 C 12.71875 -16.378906 11.898438 -16.640625 10.828125 -16.640625 C 9.992188 -16.640625 9.304688 -16.5 8.765625 -16.21875 C 8.234375 -15.945312 7.867188 -15.5625 7.671875 -15.0625 C 7.503906 -14.675781 7.226562 -14.492188 6.84375 -14.515625 L 2.234375 -15.09375 C 2.015625 -15.125 1.84375 -15.1875 1.71875 -15.28125 C 1.59375 -15.382812 1.546875 -15.519531 1.578125 -15.6875 C 1.710938 -16.8125 2.1875 -17.832031 3 -18.75 C 3.820312 -19.664062 4.898438 -20.378906 6.234375 -20.890625 C 7.578125 -21.398438 9.066406 -21.65625 10.703125 -21.65625 Z M 9.875 -4.03125 C 11.0625 -4.03125 12.066406 -4.347656 12.890625 -4.984375 C 13.722656 -5.617188 14.140625 -6.429688 14.140625 -7.421875 L 14.140625 -8.875 C 14.140625 -9.039062 14.054688 -9.125 13.890625 -9.125 L 10.953125 -9.125 C 9.703125 -9.125 8.71875 -8.890625 8 -8.421875 C 7.28125 -7.953125 6.921875 -7.289062 6.921875 -6.4375 C 6.921875 -5.6875 7.191406 -5.097656 7.734375 -4.671875 C 8.273438 -4.242188 8.988281 -4.03125 9.875 -4.03125 Z M 9.875 -4.03125 "/></g></g></g><g fill="#2a2e30" fill-opacity="1"><g transform="translate(142.40409, 234.547089)"><g><path d="M 13.28125 -21.65625 C 15.488281 -21.65625 17.269531 -20.976562 18.625 -19.625 C 19.976562 -18.269531 20.65625 -16.429688 20.65625 -14.109375 L 20.65625 -0.703125 C 20.65625 -0.234375 20.421875 0 19.953125 0 L 15.515625 0 C 15.046875 0 14.8125 -0.234375 14.8125 -0.703125 L 14.8125 -12.90625 C 14.8125 -14.007812 14.503906 -14.90625 13.890625 -15.59375 C 13.285156 -16.289062 12.472656 -16.640625 11.453125 -16.640625 C 10.429688 -16.640625 9.597656 -16.289062 8.953125 -15.59375 C 8.316406 -14.90625 8 -14.007812 8 -12.90625 L 8 -0.703125 C 8 -0.234375 7.765625 0 7.296875 0 L 2.859375 0 C 2.390625 0 2.15625 -0.234375 2.15625 -0.703125 L 2.15625 -20.625 C 2.15625 -21.09375 2.390625 -21.328125 2.859375 -21.328125 L 7.296875 -21.328125 C 7.765625 -21.328125 8 -21.09375 8 -20.625 L 8 -19.453125 C 8 -19.347656 8.023438 -19.28125 8.078125 -19.25 C 8.140625 -19.21875 8.195312 -19.242188 8.25 -19.328125 C 9.382812 -20.878906 11.0625 -21.65625 13.28125 -21.65625 Z M 13.28125 -21.65625 "/></g></g></g><g fill="#2a2e30" fill-opacity="1"><g transform="translate(166.713711, 234.547089)"><g/></g></g><g fill="#2a2e30" fill-opacity="1"><g transform="translate(176.628528, 234.547089)"><g><path d="M 10.453125 0 C 10.066406 0 9.804688 -0.191406 9.671875 -0.578125 L 1.25 -28.25 C 1.21875 -28.300781 1.203125 -28.382812 1.203125 -28.5 C 1.203125 -28.851562 1.410156 -29.03125 1.828125 -29.03125 L 6.640625 -29.03125 C 7.023438 -29.03125 7.285156 -28.835938 7.421875 -28.453125 L 12.859375 -8.46875 C 12.890625 -8.351562 12.945312 -8.296875 13.03125 -8.296875 C 13.113281 -8.296875 13.164062 -8.351562 13.1875 -8.46875 L 18.546875 -28.421875 C 18.679688 -28.828125 18.941406 -29.03125 19.328125 -29.03125 L 24.015625 -29.03125 C 24.265625 -29.03125 24.441406 -28.953125 24.546875 -28.796875 C 24.660156 -28.648438 24.675781 -28.46875 24.59375 -28.25 L 16.046875 -0.578125 C 15.910156 -0.191406 15.648438 0 15.265625 0 Z M 10.453125 0 "/></g></g></g><g fill="#2a2e30" fill-opacity="1"><g transform="translate(204.0494, 234.547089)"><g><path d="M 5.390625 -23.359375 C 4.335938 -23.359375 3.476562 -23.679688 2.8125 -24.328125 C 2.15625 -24.984375 1.828125 -25.820312 1.828125 -26.84375 C 1.828125 -27.863281 2.15625 -28.695312 2.8125 -29.34375 C 3.476562 -30 4.335938 -30.328125 5.390625 -30.328125 C 6.472656 -30.328125 7.335938 -30.007812 7.984375 -29.375 C 8.628906 -28.738281 8.953125 -27.894531 8.953125 -26.84375 C 8.953125 -25.789062 8.628906 -24.945312 7.984375 -24.3125 C 7.335938 -23.675781 6.472656 -23.359375 5.390625 -23.359375 Z M 3.1875 0 C 2.71875 0 2.484375 -0.234375 2.484375 -0.703125 L 2.484375 -20.625 C 2.484375 -21.09375 2.71875 -21.328125 3.1875 -21.328125 L 7.640625 -21.328125 C 8.109375 -21.328125 8.34375 -21.09375 8.34375 -20.625 L 8.34375 -0.703125 C 8.34375 -0.234375 8.109375 0 7.640625 0 Z M 3.1875 0 "/></g></g></g><g fill="#2a2e30" fill-opacity="1"><g transform="translate(216.453235, 234.547089)"><g><path d="M 10.703125 -21.65625 C 12.503906 -21.65625 14.109375 -21.34375 15.515625 -20.71875 C 16.921875 -20.09375 18.019531 -19.238281 18.8125 -18.15625 C 19.601562 -17.082031 20 -15.882812 20 -14.5625 L 20 -0.703125 C 20 -0.234375 19.765625 0 19.296875 0 L 14.84375 0 C 14.375 0 14.140625 -0.234375 14.140625 -0.703125 L 14.140625 -1.703125 C 14.140625 -1.804688 14.113281 -1.863281 14.0625 -1.875 C 14.007812 -1.894531 13.941406 -1.863281 13.859375 -1.78125 C 12.585938 -0.375 10.691406 0.328125 8.171875 0.328125 C 6.046875 0.328125 4.332031 -0.195312 3.03125 -1.25 C 1.726562 -2.300781 1.078125 -3.847656 1.078125 -5.890625 C 1.078125 -8.015625 1.820312 -9.664062 3.3125 -10.84375 C 4.8125 -12.019531 6.941406 -12.609375 9.703125 -12.609375 L 13.890625 -12.609375 C 14.054688 -12.609375 14.140625 -12.691406 14.140625 -12.859375 L 14.140625 -13.734375 C 14.140625 -14.640625 13.851562 -15.347656 13.28125 -15.859375 C 12.71875 -16.378906 11.898438 -16.640625 10.828125 -16.640625 C 9.992188 -16.640625 9.304688 -16.5 8.765625 -16.21875 C 8.234375 -15.945312 7.867188 -15.5625 7.671875 -15.0625 C 7.503906 -14.675781 7.226562 -14.492188 6.84375 -14.515625 L 2.234375 -15.09375 C 2.015625 -15.125 1.84375 -15.1875 1.71875 -15.28125 C 1.59375 -15.382812 1.546875 -15.519531 1.578125 -15.6875 C 1.710938 -16.8125 2.1875 -17.832031 3 -18.75 C 3.820312 -19.664062 4.898438 -20.378906 6.234375 -20.890625 C 7.578125 -21.398438 9.066406 -21.65625 10.703125 -21.65625 Z M 9.875 -4.03125 C 11.0625 -4.03125 12.066406 -4.347656 12.890625 -4.984375 C 13.722656 -5.617188 14.140625 -6.429688 14.140625 -7.421875 L 14.140625 -8.875 C 14.140625 -9.039062 14.054688 -9.125 13.890625 -9.125 L 10.953125 -9.125 C 9.703125 -9.125 8.71875 -8.890625 8 -8.421875 C 7.28125 -7.953125 6.921875 -7.289062 6.921875 -6.4375 C 6.921875 -5.6875 7.191406 -5.097656 7.734375 -4.671875 C 8.273438 -4.242188 8.988281 -4.03125 9.875 -4.03125 Z M 9.875 -4.03125 "/></g></g></g><g fill="#f46530" fill-opacity="1"><g transform="translate(94.374575, 268.53985)"><g><path d="M 1.671875 0 L 1.671875 -18.84375 L 8 -18.84375 C 9.019531 -18.84375 9.953125 -18.738281 10.796875 -18.53125 C 11.640625 -18.320312 12.359375 -18.003906 12.953125 -17.578125 C 13.546875 -17.160156 14.003906 -16.628906 14.328125 -15.984375 C 14.648438 -15.335938 14.8125 -14.570312 14.8125 -13.6875 C 14.800781 -12.8125 14.566406 -12.023438 14.109375 -11.328125 C 13.648438 -10.628906 12.972656 -10.097656 12.078125 -9.734375 C 12.617188 -9.597656 13.085938 -9.390625 13.484375 -9.109375 C 13.878906 -8.835938 14.207031 -8.507812 14.46875 -8.125 C 14.738281 -7.75 14.9375 -7.335938 15.0625 -6.890625 C 15.1875 -6.453125 15.25 -6 15.25 -5.53125 C 15.25 -4.625 15.09375 -3.820312 14.78125 -3.125 C 14.46875 -2.4375 14.019531 -1.859375 13.4375 -1.390625 C 12.863281 -0.929688 12.160156 -0.582031 11.328125 -0.34375 C 10.503906 -0.113281 9.578125 0 8.546875 0 Z M 5.3125 -8.3125 L 5.3125 -2.9375 L 8.546875 -2.9375 C 9.546875 -2.945312 10.304688 -3.191406 10.828125 -3.671875 C 11.347656 -4.148438 11.609375 -4.773438 11.609375 -5.546875 C 11.617188 -6.410156 11.382812 -7.082031 10.90625 -7.5625 C 10.4375 -8.050781 9.703125 -8.300781 8.703125 -8.3125 Z M 5.3125 -10.9375 L 8.015625 -10.9375 C 9.023438 -10.945312 9.800781 -11.15625 10.34375 -11.5625 C 10.894531 -11.976562 11.175781 -12.585938 11.1875 -13.390625 C 11.1875 -14.273438 10.910156 -14.90625 10.359375 -15.28125 C 9.816406 -15.664062 9.035156 -15.863281 8.015625 -15.875 L 5.3125 -15.875 Z M 5.3125 -10.9375 "/></g></g></g><g fill="#f46530" fill-opacity="1"><g transform="translate(110.267311, 268.53985)"><g><path d="M 5.453125 -2.078125 C 5.453125 -2.421875 5.507812 -2.734375 5.625 -3.015625 C 5.738281 -3.304688 5.898438 -3.554688 6.109375 -3.765625 C 6.328125 -3.984375 6.59375 -4.15625 6.90625 -4.28125 C 7.21875 -4.40625 7.566406 -4.46875 7.953125 -4.46875 C 8.347656 -4.46875 8.695312 -4.40625 9 -4.28125 C 9.3125 -4.15625 9.570312 -3.984375 9.78125 -3.765625 C 10 -3.554688 10.164062 -3.304688 10.28125 -3.015625 C 10.394531 -2.734375 10.453125 -2.421875 10.453125 -2.078125 C 10.453125 -1.753906 10.394531 -1.445312 10.28125 -1.15625 C 10.164062 -0.875 10 -0.628906 9.78125 -0.421875 C 9.570312 -0.210938 9.3125 -0.046875 9 0.078125 C 8.695312 0.203125 8.347656 0.265625 7.953125 0.265625 C 7.566406 0.265625 7.21875 0.203125 6.90625 0.078125 C 6.59375 -0.046875 6.328125 -0.210938 6.109375 -0.421875 C 5.898438 -0.628906 5.738281 -0.875 5.625 -1.15625 C 5.507812 -1.445312 5.453125 -1.753906 5.453125 -2.078125 Z M 5.453125 -2.078125 "/></g></g></g><g fill="#f46530" fill-opacity="1"><g transform="translate(126.160047, 268.53985)"><g><path d="M 2.578125 -19.875 L 10.40625 -19.875 L 10.40625 -2.921875 L 14.421875 -2.921875 L 14.421875 0 L 2.578125 0 L 2.578125 -2.921875 L 6.765625 -2.921875 L 6.765625 -16.9375 L 2.578125 -16.9375 Z M 2.578125 -19.875 "/></g></g></g><g fill="#f46530" fill-opacity="1"><g transform="translate(142.052783, 268.53985)"><g><path d="M 1.328125 -7.125 C 1.328125 -8.144531 1.472656 -9.085938 1.765625 -9.953125 C 2.066406 -10.816406 2.5 -11.566406 3.0625 -12.203125 C 3.625 -12.847656 4.3125 -13.351562 5.125 -13.71875 C 5.945312 -14.082031 6.882812 -14.265625 7.9375 -14.265625 C 8.988281 -14.265625 9.921875 -14.082031 10.734375 -13.71875 C 11.554688 -13.351562 12.25 -12.847656 12.8125 -12.203125 C 13.382812 -11.566406 13.816406 -10.816406 14.109375 -9.953125 C 14.398438 -9.085938 14.546875 -8.144531 14.546875 -7.125 L 14.546875 -6.859375 C 14.546875 -5.828125 14.398438 -4.878906 14.109375 -4.015625 C 13.816406 -3.148438 13.390625 -2.394531 12.828125 -1.75 C 12.265625 -1.113281 11.570312 -0.617188 10.75 -0.265625 C 9.9375 0.0859375 9.003906 0.265625 7.953125 0.265625 C 6.898438 0.265625 5.960938 0.0859375 5.140625 -0.265625 C 4.316406 -0.617188 3.625 -1.113281 3.0625 -1.75 C 2.5 -2.394531 2.066406 -3.148438 1.765625 -4.015625 C 1.472656 -4.878906 1.328125 -5.828125 1.328125 -6.859375 Z M 4.9375 -6.859375 C 4.9375 -6.273438 4.988281 -5.722656 5.09375 -5.203125 C 5.207031 -4.691406 5.382812 -4.242188 5.625 -3.859375 C 5.863281 -3.472656 6.175781 -3.164062 6.5625 -2.9375 C 6.945312 -2.71875 7.410156 -2.609375 7.953125 -2.609375 C 8.484375 -2.609375 8.9375 -2.71875 9.3125 -2.9375 C 9.695312 -3.164062 10.003906 -3.472656 10.234375 -3.859375 C 10.472656 -4.242188 10.648438 -4.691406 10.765625 -5.203125 C 10.878906 -5.722656 10.9375 -6.273438 10.9375 -6.859375 L 10.9375 -7.125 C 10.9375 -7.695312 10.878906 -8.238281 10.765625 -8.75 C 10.648438 -9.257812 10.472656 -9.707031 10.234375 -10.09375 C 10.003906 -10.476562 9.695312 -10.78125 9.3125 -11 C 8.9375 -11.226562 8.476562 -11.34375 7.9375 -11.34375 C 7.394531 -11.34375 6.929688 -11.226562 6.546875 -11 C 6.171875 -10.78125 5.863281 -10.476562 5.625 -10.09375 C 5.382812 -9.707031 5.207031 -9.257812 5.09375 -8.75 C 4.988281 -8.238281 4.9375 -7.695312 4.9375 -7.125 Z M 4.9375 -6.859375 "/></g></g></g><g fill="#f46530" fill-opacity="1"><g transform="translate(157.94552, 268.53985)"><g><path d="M 1.46875 -7.109375 C 1.46875 -8.171875 1.597656 -9.140625 1.859375 -10.015625 C 2.117188 -10.890625 2.492188 -11.640625 2.984375 -12.265625 C 3.484375 -12.898438 4.082031 -13.390625 4.78125 -13.734375 C 5.476562 -14.085938 6.265625 -14.265625 7.140625 -14.265625 C 7.960938 -14.265625 8.664062 -14.125 9.25 -13.84375 C 9.832031 -13.570312 10.332031 -13.179688 10.75 -12.671875 L 10.890625 -14 L 14.171875 -14 L 14.171875 -0.453125 C 14.171875 0.492188 14.007812 1.335938 13.6875 2.078125 C 13.363281 2.828125 12.910156 3.453125 12.328125 3.953125 C 11.742188 4.460938 11.039062 4.847656 10.21875 5.109375 C 9.40625 5.378906 8.507812 5.515625 7.53125 5.515625 C 7.101562 5.515625 6.648438 5.46875 6.171875 5.375 C 5.691406 5.289062 5.210938 5.15625 4.734375 4.96875 C 4.265625 4.789062 3.816406 4.5625 3.390625 4.28125 C 2.960938 4.007812 2.597656 3.675781 2.296875 3.28125 L 3.921875 1.09375 C 4.378906 1.613281 4.894531 2.007812 5.46875 2.28125 C 6.050781 2.550781 6.675781 2.6875 7.34375 2.6875 C 8.351562 2.6875 9.140625 2.414062 9.703125 1.875 C 10.273438 1.34375 10.5625 0.578125 10.5625 -0.421875 L 10.5625 -1.21875 C 10.132812 -0.75 9.640625 -0.382812 9.078125 -0.125 C 8.515625 0.132812 7.859375 0.265625 7.109375 0.265625 C 6.242188 0.265625 5.460938 0.0859375 4.765625 -0.265625 C 4.078125 -0.628906 3.484375 -1.125 2.984375 -1.75 C 2.492188 -2.382812 2.117188 -3.132812 1.859375 -4 C 1.597656 -4.875 1.46875 -5.816406 1.46875 -6.828125 Z M 5.078125 -6.828125 C 5.078125 -6.242188 5.132812 -5.695312 5.25 -5.1875 C 5.363281 -4.6875 5.539062 -4.25 5.78125 -3.875 C 6.019531 -3.5 6.328125 -3.203125 6.703125 -2.984375 C 7.078125 -2.773438 7.515625 -2.671875 8.015625 -2.671875 C 8.648438 -2.671875 9.171875 -2.789062 9.578125 -3.03125 C 9.992188 -3.269531 10.320312 -3.601562 10.5625 -4.03125 L 10.5625 -9.96875 C 10.320312 -10.40625 9.992188 -10.738281 9.578125 -10.96875 C 9.171875 -11.207031 8.660156 -11.328125 8.046875 -11.328125 C 7.535156 -11.328125 7.09375 -11.21875 6.71875 -11 C 6.351562 -10.78125 6.046875 -10.476562 5.796875 -10.09375 C 5.554688 -9.71875 5.375 -9.269531 5.25 -8.75 C 5.132812 -8.238281 5.078125 -7.691406 5.078125 -7.109375 Z M 5.078125 -6.828125 "/></g></g></g><g fill="#f46530" fill-opacity="1"><g transform="translate(173.838256, 268.53985)"><g><path d="M 4.46875 -7.65625 C 4.46875 -8.875 4.554688 -10.019531 4.734375 -11.09375 C 4.921875 -12.164062 5.175781 -13.15625 5.5 -14.0625 C 5.820312 -14.976562 6.195312 -15.8125 6.625 -16.5625 C 7.050781 -17.3125 7.5 -17.972656 7.96875 -18.546875 C 8.445312 -19.128906 8.9375 -19.617188 9.4375 -20.015625 C 9.945312 -20.421875 10.4375 -20.734375 10.90625 -20.953125 L 11.609375 -18.984375 C 11.117188 -18.609375 10.632812 -18.109375 10.15625 -17.484375 C 9.675781 -16.859375 9.242188 -16.082031 8.859375 -15.15625 C 8.472656 -14.226562 8.160156 -13.144531 7.921875 -11.90625 C 7.679688 -10.675781 7.5625 -9.269531 7.5625 -7.6875 L 7.5625 -7.34375 C 7.5625 -5.75 7.679688 -4.332031 7.921875 -3.09375 C 8.160156 -1.863281 8.472656 -0.785156 8.859375 0.140625 C 9.242188 1.066406 9.675781 1.84375 10.15625 2.46875 C 10.632812 3.101562 11.117188 3.601562 11.609375 3.96875 L 10.90625 5.90625 C 10.4375 5.695312 9.945312 5.390625 9.4375 4.984375 C 8.9375 4.578125 8.445312 4.085938 7.96875 3.515625 C 7.5 2.941406 7.050781 2.28125 6.625 1.53125 C 6.195312 0.78125 5.820312 -0.046875 5.5 -0.953125 C 5.175781 -1.867188 4.921875 -2.859375 4.734375 -3.921875 C 4.554688 -4.992188 4.46875 -6.144531 4.46875 -7.375 Z M 4.46875 -7.65625 "/></g></g></g><g fill="#f46530" fill-opacity="1"><g transform="translate(189.730992, 268.53985)"><g><path d="M 11.40625 -7.375 C 11.40625 -6.195312 11.304688 -5.078125 11.109375 -4.015625 C 10.921875 -2.960938 10.660156 -1.976562 10.328125 -1.0625 C 10.003906 -0.144531 9.625 0.6875 9.1875 1.4375 C 8.757812 2.195312 8.296875 2.867188 7.796875 3.453125 C 7.304688 4.046875 6.800781 4.550781 6.28125 4.96875 C 5.769531 5.382812 5.269531 5.695312 4.78125 5.90625 L 4.09375 3.96875 C 4.5625 3.601562 5.035156 3.109375 5.515625 2.484375 C 6.003906 1.859375 6.441406 1.082031 6.828125 0.15625 C 7.222656 -0.769531 7.539062 -1.851562 7.78125 -3.09375 C 8.019531 -4.332031 8.140625 -5.75 8.140625 -7.34375 L 8.140625 -7.6875 C 8.140625 -9.269531 8.015625 -10.679688 7.765625 -11.921875 C 7.515625 -13.171875 7.191406 -14.257812 6.796875 -15.1875 C 6.410156 -16.125 5.976562 -16.90625 5.5 -17.53125 C 5.019531 -18.164062 4.550781 -18.660156 4.09375 -19.015625 L 4.78125 -20.953125 C 5.269531 -20.734375 5.769531 -20.414062 6.28125 -20 C 6.800781 -19.59375 7.304688 -19.09375 7.796875 -18.5 C 8.296875 -17.90625 8.757812 -17.226562 9.1875 -16.46875 C 9.625 -15.71875 10.003906 -14.882812 10.328125 -13.96875 C 10.660156 -13.0625 10.921875 -12.078125 11.109375 -11.015625 C 11.304688 -9.960938 11.40625 -8.84375 11.40625 -7.65625 Z M 11.40625 -7.375 "/></g></g></g></svg>